/* XPM */
static const char *coin[] = {
/* columns rows colors chars-per-pixel */
"32 3 14 1 ",
"  c #8B661B",
". c #8B6A1B",
"X c #AB761B",
"o c #528A2A",
"O c #AD8B1B",
"+ c #B3831B",
"@ c #BF851B",
"# c #B48A1B",
"$ c #B79C1B",
"% c #CA941B",
"& c #C19D1B",
"* c #CB9C1B",
"= c #D9A01B",
"- c #DAA91B",
/* pixels */
"oooooooooooooooooooooooooooooooo",
"$=o&@o#oo oXoo%oo-o@&o+oo.oOoo*o",
"oooooooooooooooooooooooooooooooo"
};
