/* XPM */
static const char *fruit[] = {
/* columns rows colors chars-per-pixel */
"32 32 195 2 ",
"   c black",
".  c #2A1E1B",
"X  c #3E181A",
"o  c #1F231C",
"O  c #162F1B",
"+  c #172E1F",
"@  c #1F2B1A",
"#  c #1E2D1A",
"$  c #1D2A1C",
"%  c #1B2E1E",
"&  c #1C2C1E",
"*  c #183116",
"=  c #1D341A",
"-  c #18301C",
";  c #173F1D",
":  c #29241B",
">  c #2F2918",
",  c #302219",
"<  c #3A2E19",
"1  c #173121",
"2  c #183221",
"3  c #1A3622",
"4  c #2B2023",
"5  c #2A2724",
"6  c #2E3D20",
"7  c #3A3C20",
"8  c #39352A",
"9  c #3E2138",
"0  c #401919",
"q  c #6B171A",
"w  c #6F1A19",
"e  c #71181A",
"r  c #751C18",
"t  c #5E2F12",
"y  c #5F261C",
"u  c #6F271A",
"i  c #6D291D",
"p  c #732F15",
"a  c #792913",
"s  c #712B1E",
"d  c #772A1D",
"f  c #46233D",
"g  c #46243F",
"h  c #49243F",
"j  c #5C3F39",
"k  c #6E2B20",
"l  c #6C2C21",
"z  c #682E24",
"x  c #712C20",
"c  c #7B2F22",
"v  c #69332A",
"b  c #7C3329",
"n  c #79372B",
"m  c #743C33",
"M  c #17421C",
"N  c #18451C",
"B  c #164E1F",
"V  c #13531E",
"C  c #14531E",
"Z  c #14541D",
"A  c #13581F",
"S  c #155C1C",
"D  c #1D5F1D",
"F  c #344F1E",
"G  c #375C1F",
"H  c #17611D",
"J  c #1E651E",
"K  c #174520",
"L  c #135023",
"P  c #145023",
"I  c #135426",
"U  c #285D26",
"Y  c #3A5820",
"T  c #3D5920",
"R  c #395E20",
"E  c #106323",
"W  c #396020",
"Q  c #386721",
"!  c #366923",
"~  c #3D6921",
"^  c #386927",
"/  c #3F7422",
"(  c #674616",
")  c #704F18",
"_  c #775116",
"`  c #7A5114",
"'  c #7B5416",
"]  c #70521A",
"[  c #7C5D1D",
"{  c #5F4E20",
"}  c #435021",
"|  c #426621",
" . c #456422",
".. c #426822",
"X. c #467C23",
"o. c #527B26",
"O. c #442340",
"+. c #472441",
"@. c #482442",
"#. c #492444",
"$. c #4D2547",
"%. c #532646",
"&. c #512448",
"*. c #51264D",
"=. c #592853",
"-. c #6F2D54",
";. c #762F58",
":. c #733150",
">. c #783059",
",. c #793558",
"<. c #73464F",
"1. c #7A4151",
"2. c #801F17",
"3. c #9C131A",
"4. c #AC1E18",
"5. c #8E3F0C",
"6. c #90370F",
"7. c #892814",
"8. c #B53C0D",
"9. c #BB2E12",
"0. c #BF3510",
"q. c #882F20",
"w. c #913728",
"e. c #C21D18",
"r. c #CE3E0D",
"t. c #D52F12",
"y. c #D12814",
"u. c #D82C14",
"i. c #D63012",
"p. c #8E450E",
"a. c #97430C",
"s. c #99440C",
"d. c #974A0F",
"f. c #825815",
"g. c #875C16",
"h. c #835B1B",
"j. c #835E1A",
"k. c #875D18",
"l. c #8B5819",
"z. c #B6400C",
"x. c #A15310",
"c. c #956415",
"v. c #9E6D17",
"b. c #A26016",
"n. c #997320",
"m. c #D3450A",
"M. c #D95804",
"N. c #E8430A",
"B. c #EB470A",
"V. c #D86D08",
"C. c #FB7805",
"Z. c #833B5E",
"A. c #A3397E",
"S. c #8A455D",
"D. c #8F5454",
"F. c #B34570",
"G. c #B66363",
"H. c #B66663",
"J. c #C0586F",
"K. c #DC5F7A",
"L. c #D8587F",
"P. c #E05C75",
"I. c #D06B6E",
"U. c #C16075",
"Y. c #DC617C",
"T. c #D37472",
"R. c #0C881E",
"E. c #259421",
"W. c #20A822",
"Q. c #37B426",
"!. c #5E9B29",
"~. c #629C2A",
"^. c #42A126",
"/. c #4CA528",
"(. c #42B926",
"). c #44B827",
"_. c #46B828",
"`. c #60AF2B",
"'. c #6CB52D",
"]. c #69C82E",
"[. c #6ECB2E",
"{. c #C18D1E",
"}. c #DA8412",
"|. c #DB8B18",
" X c #DF9D1B",
".X c #FE8B0A",
"XX c #FD940A",
"oX c #FA940E",
"OX c #FDB11D",
"+X c #FDB61F",
"@X c #C09121",
"#X c #E0A721",
"$X c #CB4B85",
"%X c #EA7882",
"&X c #ED7C80",
/* pixels */
"                          C @             =                     ",
"    A                 A K I           Z B E                     ",
"  N P & % 3           $ o             ; & 2                     ",
"      Q ! 6           ^ U          .Y ..F |                     ",
"    ~.[.].!.        } '.`.        R R / W Q                     ",
"    /.Q.(.^.        o._.).o.        ..~ X.                      ",
"    S R.E.D         J W.W.J           T G                       ",
"                      H H             W G                       ",
"                      #   C                                     ",
"    A                 A K I           Z B E                     ",
"  N L % + 3           > ,             M % 1                     ",
"      l.h.7           b.x.        [ ) k.( j.                    ",
"    @X+XOX{.        { #X X        ` _ c.' f.                    ",
"    |..XXX}.        n.oXoXn.        j.g.v.                      ",
"    5.M.V.p.        d.C.C.d.          ] _                       ",
"                      s.a.            ' `                       ",
"                      O   V                                     ",
"    A                 A K I           Z B E                     ",
"  N L % - 3           5 4             M & -                     ",
"      1.<.8           S.Z.        %.f &.9 %.                    ",
"    H.&X%XG.        j T.I.        +.g *.+.#.                    ",
"    U.L.P.J.        D.Y.K.D.        &.$.=.                      ",
"    -.A.F.:.        ,.$X$X,.          h f                       ",
"                      >.;.            @.O.                      ",
"                      *   C                                     ",
"    A                 A K I           Z B E                     ",
"  N L % - 3           : .             M % 2                     ",
"      a p <           7.2.        m z b y n                     ",
"    z.B.N.8.        t m.r.        k l q.s d                     ",
"    0.y.u.9.        6.i.t.6.        n c w.                      ",
"    q 3.4.w         r e.e.r           v i                       ",
"      0 X             e e             x u                       "
};
