/* XPM */
static const char *knight[] = {
/* columns rows colors chars-per-pixel */
"32 32 27 1 ",
"  c black",
". c #6A1B20",
"X c #5E3134",
"o c #573837",
"O c #5F3738",
"+ c #73262A",
"@ c #623537",
"# c #484E36",
"$ c #4E4C3E",
"% c #4B533A",
"& c #50513B",
"* c #50523E",
"= c #4E4E40",
"- c #5C4340",
"; c #5C4745",
": c #564941",
"> c #594E42",
", c #545040",
"< c #545440",
"1 c #5B5246",
"2 c #5D5545",
"3 c #56504A",
"4 c #5D5248",
"5 c #5E5449",
"6 c #5A504C",
"7 c #604440",
"8 c #528A2A",
/* pixels */
"88888888888888888888888888888888",
"8O888888888888888888888888888888",
"8%288*288,588*288888888888888888",
"88888888888888888888888888888888",
"88888888888888888888888888888888",
"88888888888888888888888888888888",
"888  888888888888888888888888888",
"88888888888888888888888888888888",
"88888888888888888888888888888888",
"88888888888888888X88888888888888",
"8&588*288,588*288&588*288,588*28",
"88888888888888888888888888888888",
"88888888888888888888888888888888",
"88888888888888888X88888888888888",
"8*588*288,588*288&588*288,588*28",
"88888888888888888888888888888888",
"88888888888888888888888888888888",
"88888888888888888888888888888888",
"88888888888888888888888888888888",
"88888888888888888888888888888888",
"88888888888888888888888888888888",
"8O888888888888888888888888888888",
"8%288=388:688#-886$88;388:688$38",
"888888888888888888888o8888888888",
"88888888888888888888888888888888",
"8O888@8888888@888888888888888888",
"8%288<188+.88<188888888888888888",
"88888888888888888888888888888888",
"88888888888888888888888888888888",
"8O888888888888888888888888888888",
"8%288*288>4888788888888888888888",
"88888888888888388888888888888888"
};
