/* XPM */
static const char *platforms[] = {
/* columns rows colors chars-per-pixel */
"32 32 202 2 ",
"   c #231F19",
".  c #1B3220",
"X  c #1A3521",
"o  c #382E21",
"O  c #382B24",
"+  c #2B3222",
"@  c #293923",
"#  c #373022",
"$  c #2D2F34",
"%  c #441626",
"&  c #523428",
"*  c #553628",
"=  c #69322F",
"-  c #763024",
";  c #7E3424",
":  c #7A342C",
">  c #1A4F27",
",  c #1C5126",
"<  c #13552B",
"1  c #14562A",
"2  c #1A572A",
"3  c #13582A",
"4  c #204C22",
"5  c #205424",
"6  c #237929",
"7  c #257A2A",
"8  c #247C2B",
"9  c #247E2B",
"0  c #5F4231",
"q  c #644C37",
"w  c #734E32",
"e  c #7E4F32",
"r  c #7F5033",
"t  c #7E5435",
"y  c #4D6E24",
"u  c #4E6E24",
"i  c #557A26",
"p  c #3C4E59",
"a  c #2C4964",
"s  c #2C4D6B",
"d  c #375068",
"f  c #306B7F",
"g  c #915623",
"h  c #834C32",
"j  c #844C32",
"k  c #AC5B23",
"l  c #AC5D24",
"z  c #917638",
"x  c #A16123",
"c  c #A4693E",
"v  c #A46A3F",
"b  c #C76223",
"n  c #C86222",
"m  c #876F4F",
"M  c #886F50",
"N  c #957A57",
"B  c #A76B40",
"V  c #33A12B",
"C  c #33A12C",
"Z  c #37A32C",
"A  c #3DA92A",
"S  c #3DAA2B",
"D  c #3FAA2B",
"F  c #5B8326",
"G  c #5D8027",
"H  c #5E8027",
"J  c #5C8326",
"K  c #5D8427",
"L  c #5E8427",
"P  c #5F8527",
"I  c #618227",
"U  c #608527",
"Y  c #618528",
"T  c #618628",
"R  c #40AA2B",
"E  c #44B029",
"W  c #46B12A",
"Q  c #5AC22B",
"!  c #5DC32C",
"~  c #61C42D",
"^  c #64C62D",
"/  c #69CA2D",
"(  c #6DCA2E",
")  c #6ECB2E",
"_  c #74CE2F",
"`  c #A0863C",
"'  c #A18C3F",
"]  c #DB8C2D",
"[  c #DB8D2D",
"{  c #E38F2E",
"}  c #FDBE35",
"|  c #FEBF35",
" . c #84D333",
".. c #82D432",
"X. c #83D432",
"o. c #FEC036",
"O. c #FCC53B",
"+. c #FAC53C",
"@. c #FAC63C",
"#. c #FCC63C",
"$. c #99815D",
"%. c #9A815F",
"&. c #9C815C",
"*. c #9D825C",
"=. c #9D825D",
"-. c #9D835F",
";. c #9E835E",
":. c #9E845F",
">. c #A18E40",
",. c #A68F40",
"<. c #A69040",
"1. c #A69140",
"2. c #A69141",
"3. c #A69241",
"4. c #A79241",
"5. c #9B8462",
"6. c #9E8460",
"7. c #9F8560",
"8. c #9E8461",
"9. c #9E8561",
"0. c #9E8661",
"q. c #9F8661",
"w. c #9F8663",
"e. c #A08662",
"r. c #CD8C4E",
"t. c #CE8C4E",
"y. c #D08F51",
"u. c #D19353",
"i. c #D19455",
"p. c #D29455",
"a. c #D49856",
"s. c #D59957",
"d. c #DFA865",
"f. c #E1AA67",
"g. c #E1AB67",
"h. c #E1AB68",
"j. c #E2AD6B",
"k. c #E3AF6E",
"l. c #E3B06E",
"z. c #E4B26F",
"x. c #E5B574",
"c. c #E6B574",
"v. c #E9BA79",
"b. c #FBCB41",
"n. c #FBCC41",
"m. c #FFDC4B",
"M. c #FFDE4C",
"N. c #FFE04D",
"B. c #FFE14D",
"V. c #FFE451",
"C. c #FEE551",
"Z. c #FFE651",
"A. c #FFEA53",
"S. c #FFF055",
"D. c #FFF056",
"F. c #31768E",
"G. c #2E7397",
"H. c #307598",
"J. c #2E7BB0",
"K. c #2E7BB1",
"L. c #2E7BB2",
"P. c #5C8885",
"I. c #5D8886",
"U. c #659694",
"Y. c #6E9C97",
"T. c #6B9F9A",
"R. c #729D99",
"E. c #6CA09B",
"W. c #6DA09B",
"Q. c #6FA09C",
"!. c #6FA19C",
"~. c #70A19C",
"^. c #72A19D",
"/. c #72A29D",
"(. c #3AA1C3",
"). c #3BA2C3",
"_. c #3CA5CA",
"`. c #47CFE3",
"'. c #47D1E4",
"]. c #4BD2E5",
"[. c #50D6E1",
"{. c #52D7E1",
"}. c #50D6E3",
"|. c #52D7E3",
" X c #55DCE1",
".X c #57DDE1",
"XX c #6BECE9",
"oX c #6FEDEA",
"OX c #70EDEA",
"+X c #74EEEB",
"@X c #77EFED",
"#X c #78EFED",
"$X c #7BF2EB",
"%X c #7BF2EC",
"&X c #EEC485",
"*X c #EFC587",
"=X c #81F2EC",
"-X c #82F3EE",
";X c #88F6F0",
":X c #99FBF6",
">X c #9BFBF7",
",X c None",
/* pixels */
",XG T K U T G ,X,XI K K K T F K K T F F U T G ,X,X,X,X,X,X,X,X,X",
"i ( ..! ^ ..( u u  ._ ! ! ../ ~ ! ../ Q ^ ..( i ,X,X,X,X,X,X,X,X",
"5 V R 7 7 R C 4 4 Z A 7 7 W A 9 9 A W 7 7 R V 5 ,X,X,X,X,X,X,X,X",
"X < > o o > < . . < > o o , 3 @ + 1 2 # o > < X ,X,X,X,X,X,X,X,X",
",X,X  ,X,X  ,X,X,X,X  ,X,X,X,X,X,X,X,X,X,X  ,X,X,X,X,X,X,X,X,X,X",
",X,X,X,X,X,X,X,X,X,X,X,X,X,X,X,X,X,X,X,X,X,X,X,X,X,X,X,X,X,X,X,X",
",X,X,X,X,X,X,X,X,X,X,X,X,X,X,X,X,X,X,X,X,X,X,X,X,X,X,X,X,X,X,X,X",
",X,X,X,X,X,X,X,X,X,X,X,X,X,X,X,X,X,X,X,X,X,X,X,X,X,X,X,X,X,X,X,X",
",X%.8.-.8.8.%.,X,X5.8.8.-.8.-.:.-.e.-.-.8.8.%.,X,X,X,X,X,X,X,X,X",
"N c.*Xf.k.*Xc.M m *Xv.f.h.*Xz.j.f.*Xz.d.l.*Xx.N ,X,X,X,X,X,X,X,X",
"t t.i.c c i.t.w w y.u.c c s.u.B B i.s.c c i.t.t ,X,X,X,X,X,X,X,X",
"* j e q q e j & & j e q q r h 0 0 h r q q e j * ,X,X,X,X,X,X,X,X",
",X,XO ,X,XO ,X,X,X,XO ,X,X,X,X,X,X,X,X,X,XO ,X,X,X,X,X,X,X,X,X,X",
",X,X,X,X,X,X,X,X,X,X,X,X,X,X,X,X,X,X,X,X,X,X,X,X,X,X,X,X,X,X,X,X",
",X,X,X,X,X,X,X,X,X,X,X,X,X,X,X,X,X,X,X,X,X,X,X,X,X,X,X,X,X,X,X,X",
",X,X,X,X,X,X,X,X,X,X,X,X,X,X,X,X,X,X,X,X,X,X,X,X,X,X,X,X,X,X,X,X",
",X' 4.4.4.4.' ,X,X>.4.4.4.4.,.4.4.4.,.,.4.4.' ,X,X,X,X,X,X,X,X,X",
"` C.D.M.B.D.C.z z D.A.M.M.D.C.M.M.D.C.m.B.D.C.` ,X,X,X,X,X,X,X,X",
"x } @.[ [ @.} g g o.@.[ [ n.O.{ { #.b.[ [ @.} x ,X,X,X,X,X,X,X,X",
"; n k = = k n - - n k = = l b : : b l = = k n ; ,X,X,X,X,X,X,X,X",
",X,X% ,X,X% ,X,X,X,X% ,X,X,X,X,X,X,X,X,X,X% ,X,X,X,X,X,X,X,X,X,X",
",X,X,X,X,X,X,X,X,X,X,X,X,X,X,X,X,X,X,X,X,X,X,X,X,X,X,X,X,X,X,X,X",
",X,X,X,X,X,X,X,X,X,X,X,X,X,X,X,X,X,X,X,X,X,X,X,X,X,X,X,X,X,X,X,X",
",X,X,X,X,X,X,X,X,X,X,X,X,X,X,X,X,X,X,X,X,X,X,X,X,X,X,X,X,X,X,X,X",
",XY./.W././.Y.,X,XR.!.!.W./.T.!.W./.T.W././.Y.,X,X,X,X,X,X,X,X,X",
"U.=X:XoX@X:X=XI.I.:X;XoXOX:X$X+XoX:X%XXX#X:X=XU.,X,X,X,X,X,X,X,X",
"F.`.{.).).{.'.f f ].{.).)..X{._._.{..X).).{.`.F.,X,X,X,X,X,X,X,X",
"s L.G.p p G.L.a a L.G.p p H.L.d d L.H.p p G.L.s ,X,X,X,X,X,X,X,X",
",X,X$ ,X,X$ ,X,X,X,X$ ,X,X,X,X,X,X,X,X,X,X$ ,X,X,X,X,X,X,X,X,X,X",
",X,X,X,X,X,X,X,X,X,X,X,X,X,X,X,X,X,X,X,X,X,X,X,X,X,X,X,X,X,X,X,X",
",X,X,X,X,X,X,X,X,X,X,X,X,X,X,X,X,X,X,X,X,X,X,X,X,X,X,X,X,X,X,X,X",
",X,X,X,X,X,X,X,X,X,X,X,X,X,X,X,X,X,X,X,X,X,X,X,X,X,X,X,X,X,X,X,X"
};
